# Blender v2.79 (sub 0) OBJ File: 'rock.blend'
# www.blender.org
mtllib rock.mtl
o Cube_Cube.002
v -1.164721 -1.398062 1.197420
v -2.307502 -0.541344 -0.322482
v -1.592167 -1.588274 -1.447071
v -1.967823 1.943227 -0.876197
v 1.133486 -1.588274 1.278581
v 0.443482 1.221819 1.492920
v 1.133486 -1.588274 -1.447071
v 0.701584 2.436015 -0.527249
v 1.661196 1.851189 -0.321194
v 2.681198 -1.013300 -1.097427
v 2.770472 -0.574373 0.972124
v 1.823190 1.273765 1.409989
vt 0.464663 0.092761
vt 0.469448 0.095151
vt 0.458497 0.096864
vt 0.482214 0.092843
vt 0.469448 0.103464
vt 0.471320 0.092761
vt 0.458187 0.105914
vt 0.467927 0.112407
vt 0.459318 0.112907
vt 0.477971 0.119358
vt 0.470165 0.125941
vt 0.469448 0.116763
vt 0.469448 0.105992
vt 0.491367 0.112670
vt 0.482214 0.102303
vt 0.491367 0.101958
vt 0.458187 0.119241
vt 0.462703 0.112907
vt 0.462703 0.123580
vt 0.482214 0.103757
vt 0.477971 0.113788
vt 0.482114 0.109999
vt 0.482114 0.121926
vt 0.477971 0.114949
vt 0.482214 0.117531
vt 0.487576 0.112670
vt 0.487576 0.124703
vt 0.490265 0.097953
vt 0.483098 0.092761
vt 0.490620 0.093527
vt 0.483022 0.096792
vt 0.470450 0.109999
vt 0.472181 0.109999
vt 0.480183 0.107505
vn -0.7227 -0.6711 0.1651
vn 0.0000 0.1596 -0.9872
vn 0.5409 -0.8272 0.1521
vn -0.0423 -0.0863 0.9954
vn 0.0000 -0.9974 0.0717
vn -0.2196 0.8483 0.4818
vn -0.8452 -0.0035 -0.5344
vn 0.0842 0.2306 -0.9694
vn 0.0622 -0.0607 0.9962
vn -0.6575 0.3271 0.6787
vn -0.0825 -0.9966 0.0000
vn -0.6397 0.2495 0.7270
vn 0.9252 0.3610 -0.1165
vn 0.8942 0.4431 0.0641
vn 0.3634 0.7773 0.5136
vn 0.1306 0.2342 -0.9634
vn 0.3482 -0.9374 0.0000
vn 0.2444 -0.1032 0.9642
vn -0.0166 0.9480 0.3178
vn 0.4054 0.3708 -0.8356
usemtl None
s off
f 2/1/1 3/2/1 1/3/1
f 4/4/2 7/5/2 3/6/2
f 5/7/3 10/8/3 11/9/3
f 6/10/4 1/11/4 5/12/4
f 7/13/5 1/3/5 3/2/5
f 4/14/6 6/15/6 8/16/6
f 2/17/7 4/18/7 3/19/7
f 4/4/8 8/20/8 7/5/8
f 5/12/9 12/21/9 6/10/9
f 6/22/10 2/23/10 1/24/10
f 7/13/11 5/7/11 1/3/11
f 4/25/12 2/26/12 6/27/12
f 9/28/13 11/29/13 10/30/13
f 9/28/14 12/31/14 11/29/14
f 6/15/15 9/28/15 8/16/15
f 8/20/16 10/32/16 7/5/16
f 5/7/17 7/13/17 10/8/17
f 5/12/18 11/33/18 12/21/18
f 6/15/19 12/31/19 9/28/19
f 8/20/20 9/34/20 10/32/20
