# Blender v2.79 (sub 0) OBJ File: 'tree.blend'
# www.blender.org
mtllib tree.mtl
o Cube_Cube.003
v -1.022519 -1.396337 -0.255621
v -0.232487 2.661302 0.523489
v -0.224427 -1.943643 -0.862630
v -0.232487 2.661302 -0.806474
v 1.166202 -1.268619 1.412359
v 1.097476 2.661302 0.523489
v 1.455256 -1.514861 -1.176453
v 1.097476 2.661302 -0.806474
v 0.281831 6.442083 0.786777
v -0.495779 6.422095 -0.292140
v 0.583159 6.421479 -1.069762
v 1.360768 6.441466 0.009155
v 1.110437 8.265153 1.820076
v -0.810698 7.431928 0.037939
v -0.193092 8.599626 -1.673661
v 2.106244 8.713641 -0.644834
v 1.965817 8.406316 4.237147
v -2.534289 9.258068 0.955694
v -0.843630 8.684899 -4.725840
v 5.121459 7.668798 -0.253935
v 3.180066 14.397044 3.384186
v -4.108645 15.018785 3.093459
v 0.161256 16.923847 -3.455629
v 4.097803 13.681706 -1.599936
v 2.499580 18.043060 0.765632
v -0.689254 17.050674 1.402152
v -0.364926 18.508390 -1.794145
v 2.985492 18.751627 -1.386149
vt 0.470617 0.196412
vt 0.476015 0.188894
vt 0.474882 0.197433
vt 0.478972 0.187607
vt 0.480120 0.195425
vt 0.470195 0.165013
vt 0.460744 0.171885
vt 0.457664 0.163640
vt 0.470195 0.179375
vt 0.478428 0.171715
vt 0.483573 0.179375
vt 0.483694 0.181732
vt 0.491838 0.192108
vt 0.480120 0.185217
vt 0.467220 0.172899
vt 0.461871 0.179409
vt 0.462198 0.191623
vt 0.464855 0.197815
vt 0.463091 0.197274
vt 0.470195 0.187171
vt 0.474319 0.181562
vt 0.472467 0.171311
vt 0.475619 0.164392
vt 0.480120 0.181526
vt 0.531313 0.305564
vt 0.521024 0.300344
vt 0.535043 0.300121
vt 0.490445 0.170144
vt 0.483573 0.163823
vt 0.490463 0.163640
vt 0.459974 0.187867
vt 0.462198 0.193960
vt 0.457664 0.193960
vt 0.467549 0.180539
vt 0.463912 0.183933
vt 0.531672 0.338867
vt 0.525774 0.324062
vt 0.531672 0.319626
vt 0.526079 0.313620
vt 0.535043 0.314535
vt 0.520760 0.319626
vt 0.524802 0.307292
vt 0.530400 0.312188
vt 0.510283 0.335218
vt 0.506592 0.327442
vt 0.512231 0.322368
vt 0.536904 0.322815
vt 0.542157 0.339345
vt 0.535043 0.336343
vt 0.517557 0.333864
vt 0.517557 0.320167
vt 0.537777 0.306150
vt 0.544083 0.320294
vt 0.535043 0.321058
vt 0.519470 0.303918
vt 0.509800 0.305566
vt 0.511749 0.300195
vt 0.520760 0.320167
vt 0.520760 0.300121
vt 0.523102 0.335385
vt 0.520760 0.326473
vt 0.504859 0.311108
vt 0.515749 0.311465
vt 0.491838 0.179375
vt 0.464855 0.185522
vt 0.471333 0.179375
vt 0.472447 0.163640
vt 0.490463 0.174770
vt 0.460214 0.185522
vt 0.470195 0.185522
vt 0.504859 0.332912
vt 0.542157 0.321058
vt 0.544083 0.300121
vt 0.521471 0.334314
vn -0.6016 0.0087 -0.7988
vn -0.2003 0.0694 -0.9773
vn 0.9934 0.0416 0.1070
vn -0.6045 -0.0351 0.7959
vn -0.2716 -0.8647 0.4226
vn 0.9976 -0.0695 0.0000
vn -0.7377 -0.4063 0.5392
vn -0.9976 -0.0698 0.0000
vn 0.0000 -0.0695 0.9976
vn 0.0000 -0.0698 -0.9976
vn -0.0992 -0.9907 0.0930
vn 0.4730 -0.5873 0.6568
vn -0.5366 -0.3976 -0.7443
vn 0.7476 -0.3983 -0.5315
vn 0.5892 -0.0797 -0.8040
vn -0.2445 -0.9693 0.0250
vn -0.3460 -0.9025 0.2564
vn -0.3387 -0.6578 0.6727
vn 0.9518 0.2751 0.1358
vn -0.5856 -0.4178 0.6946
vn 0.8092 -0.0812 0.5819
vn -0.9415 0.1605 -0.2964
vn -0.1044 0.9514 0.2897
vn -0.8447 0.2276 -0.4845
vn 0.5197 0.1495 -0.8412
vn 0.0214 0.6181 0.7858
vn -0.9816 0.1911 0.0000
vn 0.0000 0.0122 -0.9999
vn 0.9964 0.0854 0.0000
vn 0.0000 0.2206 0.9754
vn 0.2667 -0.9562 0.1207
vn 0.8087 0.0697 -0.5841
vn -0.6412 -0.1365 0.7551
vn -0.8099 0.0696 0.5824
vn 0.5833 0.0695 0.8093
vn -0.5832 0.0698 -0.8093
vn -0.2816 -0.9176 -0.2807
vn 0.9198 -0.2056 0.3342
vn -0.8962 -0.1421 -0.4203
vn 0.4105 -0.1048 -0.9058
vn 0.4763 0.0770 -0.8759
vn -0.7289 -0.4139 -0.5454
vn 0.0684 -0.9968 -0.0424
vn -0.2945 -0.9423 0.1592
vn 0.9410 0.1948 0.2766
vn -0.0270 0.1463 0.9889
vn 0.9686 0.1984 0.1499
vn -0.8343 -0.0236 -0.5508
vn -0.2020 0.8987 0.3894
vn -0.3373 0.8690 0.3621
vn 0.0305 0.7281 -0.6848
vn -0.0184 0.5810 0.8137
usemtl None
s off
f 1/1/1 4/2/1 3/3/1
f 3/3/2 8/4/2 7/5/2
f 7/6/3 6/7/3 5/8/3
f 5/9/4 2/10/4 1/11/4
f 3/12/5 5/13/5 1/14/5
f 8/15/6 12/16/6 6/7/6
f 9/17/7 14/18/7 10/19/7
f 2/20/8 10/21/8 4/2/8
f 6/22/9 9/23/9 2/10/9
f 4/2/10 11/24/10 8/4/10
f 13/25/11 20/26/11 17/27/11
f 12/28/12 13/29/12 9/30/12
f 10/31/13 15/32/13 11/33/13
f 11/34/14 16/35/14 12/16/14
f 19/36/15 24/37/15 20/38/15
f 15/39/16 18/40/16 19/41/16
f 16/42/17 19/41/17 20/26/17
f 13/25/18 18/40/18 14/43/18
f 24/44/19 25/45/19 21/46/19
f 17/47/20 22/48/20 18/49/20
f 20/50/21 21/46/21 17/51/21
f 18/52/22 23/53/22 19/54/22
f 27/55/23 25/56/23 28/57/23
f 22/58/24 27/55/24 23/59/24
f 23/60/25 28/61/25 24/37/25
f 21/62/26 26/63/26 22/58/26
f 1/1/27 2/20/27 4/2/27
f 3/3/28 4/2/28 8/4/28
f 7/6/29 8/15/29 6/7/29
f 5/9/30 6/22/30 2/10/30
f 3/12/31 7/64/31 5/13/31
f 8/15/32 11/34/32 12/16/32
f 9/17/33 13/65/33 14/18/33
f 2/20/34 9/66/34 10/21/34
f 6/22/35 12/67/35 9/23/35
f 4/2/36 10/21/36 11/24/36
f 13/25/37 16/42/37 20/26/37
f 12/28/38 16/68/38 13/29/38
f 10/31/39 14/69/39 15/32/39
f 11/34/40 15/70/40 16/35/40
f 19/36/41 23/60/41 24/37/41
f 15/39/42 14/43/42 18/40/42
f 16/42/43 15/39/43 19/41/43
f 13/25/44 17/27/44 18/40/44
f 24/44/45 28/71/45 25/45/45
f 17/47/46 21/72/46 22/48/46
f 20/50/47 24/44/47 21/46/47
f 18/52/48 22/73/48 23/53/48
f 27/55/49 26/63/49 25/56/49
f 22/58/50 26/63/50 27/55/50
f 23/60/51 27/74/51 28/61/51
f 21/62/52 25/56/52 26/63/52
